:FULLY-SPECIFIED
:FORCE-ALL-JOINTS-BE-3DOF
:DEGREES
306
root 8.88388 15.5822 -23.8606 14.696 56.4931 16.5242
lfemur -17.6997 18.4797 -18.7802
ltibia 49.989 0 0
lfoot -20.0052 -21.6612 0
ltoes 54.1506 0 0
rfemur -58.8955 -19.099 33.8214
rtibia 61.4586 0 0
rfoot 9.73303 17.0363 0
rtoes -16.7605 0 0
lowerback 9.49656 -3.08739 -7.25282
upperback 4.67032 -4.60435 -3.85109
thorax -0.19388 -2.30808 0.471508
lowerneck -5.38648 -10.4855 -2.15089
upperneck -3.25836 -13.8031 10.1827
head 0.822955 -6.83559 3.20558
lclavicle -1.36372e-14 3.70638e-15 0
lhumerus -44.44 -44.6302 102.399
lradius 58.7048 0 0
lwrist 19.26 0 0
lhand 15.466 11.6103 0
lfingers 7.12502 0 0
lthumb 40.2881 36.7322 0
rclavicle -1.36372e-14 3.70638e-15 0
rhumerus -17.1082 50.2089 -56.1934
rradius 73.6559 0 0
rwrist -0.950939 0 0
rhand 7.92483 -2.02761 0
rfingers 7.12502 0 0
rthumb 33.0652 -748.053 0
307
root 8.88467 15.5711 -23.8239 14.0612 55.7416 15.8734
lfemur -17.5812 18.9549 -18.6075
ltibia 50.0947 0 0
lfoot -20.2278 -21.5004 0
ltoes 54.5274 0 0
rfemur -59.1591 -19.7721 34.5129
rtibia 61.2409 0 0
rfoot 9.76211 17.6165 0
rtoes -17.6658 0 0
lowerback 9.58302 -2.99445 -7.38204
upperback 4.72362 -4.49278 -3.89131
thorax -0.181441 -2.25368 0.496263
lowerneck -5.43854 -10.4319 -2.02803
upperneck -3.42792 -13.7272 10.3253
head 0.774797 -6.79849 3.23761
lclavicle -1.89406e-14 3.28316e-15 0
lhumerus -44.4376 -44.8503 102.247
lradius 58.6598 0 0
lwrist 19.2181 0 0
lhand 15.3348 11.4278 0
lfingers 7.12502 0 0
lthumb 40.165 36.5901 0
rclavicle -1.89406e-14 3.28316e-15 0
rhumerus -15.4662 51.9089 -54.5388
rradius 74.294 0 0
rwrist -1.75113 0 0
rhand 9.34278 -2.33011 0
rfingers 7.12502 0 0
rthumb 34.4253 -748.204 0
308
root 8.88545 15.5601 -23.7872 13.4265 54.9902 15.2225
lfemur -17.4626 19.43 -18.4349
ltibia 50.2004 0 0
lfoot -20.4504 -21.3396 0
ltoes 54.9041 0 0
rfemur -59.4226 -20.4452 35.2045
rtibia 61.0231 0 0
rfoot 9.79118 18.1967 0
rtoes -18.5712 0 0
lowerback 9.66947 -2.90151 -7.51126
upperback 4.77693 -4.3812 -3.93154
thorax -0.169003 -2.19928 0.521019
lowerneck -5.49059 -10.3782 -1.90518
upperneck -3.59748 -13.6512 10.468
head 0.726638 -6.76138 3.26964
lclavicle -2.42441e-14 2.85994e-15 0
lhumerus -44.4353 -45.0704 102.095
lradius 58.6149 0 0
lwrist 19.1761 0 0
lhand 15.2035 11.2453 0
lfingers 7.12502 0 0
lthumb 40.0419 36.448 0
rclavicle -2.42441e-14 2.85994e-15 0
rhumerus -13.8242 53.609 -52.8841
rradius 74.9321 0 0
rwrist -2.55131 0 0
rhand 10.7607 -2.6326 0
rfingers 7.12502 0 0
rthumb 35.7853 -748.354 0
309
root 8.88624 15.549 -23.7506 12.7918 54.2387 14.5717
lfemur -17.3441 19.9051 -18.2622
ltibia 50.3062 0 0
lfoot -20.673 -21.1788 0
ltoes 55.2808 0 0
rfemur -59.6862 -21.1184 35.896
rtibia 60.8054 0 0
rfoot 9.82025 18.777 0
rtoes -19.4766 0 0
lowerback 9.75592 -2.80857 -7.64048
upperback 4.83023 -4.26962 -3.97176
thorax -0.156564 -2.14488 0.545774
lowerneck -5.54264 -10.3246 -1.78232
upperneck -3.76704 -13.5753 10.6106
head 0.678479 -6.72428 3.30167
lclavicle -2.95476e-14 2.43672e-15 0
lhumerus -44.4329 -45.2905 101.943
lradius 58.5699 0 0
lwrist 19.1342 0 0
lhand 15.0723 11.0628 0
lfingers 7.12502 0 0
lthumb 39.9188 36.3059 0
rclavicle -2.95476e-14 2.43672e-15 0
rhumerus -12.1822 55.309 -51.2294
rradius 75.5702 0 0
rwrist -3.3515 0 0
rhand 12.1787 -2.9351 0
rfingers 7.12502 0 0
rthumb 37.1453 -748.505 0
310
root 8.88702 15.538 -23.7139 12.157 53.4872 13.9209
lfemur -17.2255 20.3803 -18.0896
ltibia 50.4119 0 0
lfoot -20.8955 -21.018 0
ltoes 55.6576 0 0
rfemur -59.9497 -21.7915 36.5876
rtibia 60.5877 0 0
rfoot 9.84933 19.3572 0
rtoes -20.382 0 0
lowerback 9.84238 -2.71563 -7.76971
upperback 4.88354 -4.15805 -4.01199
thorax -0.144125 -2.09048 0.57053
lowerneck -5.5947 -10.271 -1.65947
upperneck -3.93659 -13.4993 10.7533
head 0.630321 -6.68717 3.33369
lclavicle -3.4851e-14 2.0135e-15 0
lhumerus -44.4306 -45.5106 101.791
lradius 58.525 0 0
lwrist 19.0922 0 0
lhand 14.941 10.8803 0
lfingers 7.12502 0 0
lthumb 39.7957 36.1639 0
rclavicle -3.4851e-14 2.0135e-15 0
rhumerus -10.5401 57.0091 -49.5748
rradius 76.2082 0 0
rwrist -4.15168 0 0
rhand 13.5966 -3.2376 0
rfingers 7.12502 0 0
rthumb 38.5054 -748.656 0
311
root 8.88781 15.5269 -23.6772 11.5223 52.7357 13.2701
lfemur -17.107 20.8554 -17.9169
ltibia 50.5176 0 0
lfoot -21.1181 -20.8572 0
ltoes 56.0343 0 0
rfemur -60.2133 -22.4646 37.2791
rtibia 60.37 0 0
rfoot 9.8784 19.9374 0
rtoes -21.2874 0 0
lowerback 9.92883 -2.62269 -7.89893
upperback 4.93684 -4.04647 -4.05221
thorax -0.131686 -2.03608 0.595285
lowerneck -5.64675 -10.2174 -1.53661
upperneck -4.10615 -13.4234 10.8959
head 0.582162 -6.65007 3.36572
lclavicle -4.01545e-14 1.59028e-15 0
lhumerus -44.4282 -45.7307 101.639
lradius 58.48 0 0
lwrist 19.0503 0 0
lhand 14.8098 10.6978 0
lfingers 7.12502 0 0
lthumb 39.6726 36.0218 0
rclavicle -4.01545e-14 1.59028e-15 0
rhumerus -8.8981 58.7091 -47.9201
rradius 76.8463 0 0
rwrist -4.95187 0 0
rhand 15.0146 -3.5401 0
rfingers 7.12502 0 0
rthumb 39.8654 -748.807 0
312
root 8.86183 15.5463 -23.5609 11.4971 51.6975 12.9372
lfemur -16.7908 20.6028 -17.6167
ltibia 50.1766 0 0
lfoot -20.0734 -19.2249 0
ltoes 53.2925 0 0
rfemur -59.8321 -22.2578 36.5261
rtibia 60.198 0 0
rfoot 9.59175 18.7551 0
rtoes -20.8533 0 0
lowerback 9.55411 -2.59173 -7.67836
upperback 4.82635 -3.98662 -3.91537
thorax -0.0453858 -2.00632 0.59877
lowerneck -5.66 -10.1499 -1.50766
upperneck -4.0195 -13.3405 10.7536
head 0.595382 -6.60792 3.31567
lclavicle -4.03052e-14 1.79548e-15 0
lhumerus -44.5528 -45.2939 101.881
lradius 58.4247 0 0
lwrist 19.1361 0 0
lhand 14.4894 10.7375 0
lfingers 7.12502 0 0
lthumb 39.3688 36.133 0
rclavicle -4.03052e-14 1.79548e-15 0
rhumerus -9.43261 57.3837 -48.8843
rradius 77.1092 0 0
rwrist -4.73301 0 0
rhand 14.4289 -3.87448 0
rfingers 7.12502 0 0
rthumb 39.3077 -749.252 0
313
root 8.83586 15.5657 -23.4447 11.472 50.6593 12.6043
lfemur -16.4747 20.3502 -17.3165
ltibia 49.8357 0 0
lfoot -19.0288 -17.5925 0
ltoes 50.5508 0 0
rfemur -59.4509 -22.051 35.773
rtibia 60.0259 0 0
rfoot 9.30509 17.5729 0
rtoes -20.4192 0 0
lowerback 9.17939 -2.56077 -7.45779
upperback 4.71587 -3.92677 -3.77853
thorax 0.0409144 -1.97656 0.602256
lowerneck -5.67325 -10.0824 -1.47871
upperneck -3.93285 -13.2576 10.6113
head 0.608603 -6.56578 3.26563
lclavicle -4.04559e-14 2.00067e-15 0
lhumerus -44.6773 -44.857 102.122
lradius 58.3694 0 0
lwrist 19.222 0 0
lhand 14.1691 10.7772 0
lfingers 7.12502 0 0
lthumb 39.0649 36.2442 0
rclavicle -4.04559e-14 2.00067e-15 0
rhumerus -9.96713 56.0584 -49.8484
rradius 77.3721 0 0
rwrist -4.51414 0 0
rhand 13.8432 -4.20885 0
rfingers 7.12502 0 0
rthumb 38.75 -749.697 0
